<svg width="812" height="1542" viewBox="0 0 812 1542" fill="none" xmlns="http://www.w3.org/2000/svg">
<path d="M312 33.5C307.652 38.8627 299.988 45.9914 290 54.2961M381 366.5V390L376.5 419.5V655V696V936L380.5 958V1026V1195L363.5 1431.5L359.5 1490.5V1500.5V1525M381 366.5L359.5 308L346 264.5L334 224L327.5 189L321.5 171V167L312 157.5L290 145L280 109.5V85L285 67.5L290 54.2961M381 366.5L390.5 333.5L394 309.5M290 54.2961C244.857 91.8296 152.22 153.385 103.5 184.5L83 205L76 224L68 255C68 255 57.5 278.5 68 278.5C78.5 278.5 57.5 287 57.5 287V304V333.5V371L50 395.5V432V470.5L42 513V541V559.5L32 589.5V602.5L27.5 630L21.5 647L17.5 663.5V679.5L13 698.5V719V742V759.5V772V779V790.5V799.5L10 809L7.5 832.5L5.5 848V858L7.5 868V875L5.5 889V905.5L3.5 910.5L5.5 953.5L10 988V993L3.5 1026V1042.5L2 1088.5L3.5 1108.5L5.5 1124.5L7.5 1136.5L12 1130L18 1126.5L25 1124.5L33 1122L53.5 1119.5L81.5 1117.5L97.5 1119.5L107 1126.5V1076V1031V1028.5V1009L102.5 993L122.5 947.5L125.5 942.5V929V910.5V905.5L130 898V879V858L132.5 856V848L135.5 841.5V835.5L139.5 817.5V802.5L143 794L145 784L147 754L150 744V730.5L161 696L163 673.5V655V649L167.5 634.5V630L172.5 619.5V597.5V593.5L178.5 582.5V570V559.5L183 550.5V531.5L189 503.5L183 479.5L172.5 447H183L189 470.5V518.5V576L178.5 619.5L172.5 663.5L163 719L161 754L150 784V826.5V898L147 936L145 1009L143 1049.5V1076V1095L139.5 1108.5V1150.5L135.5 1189.5V1266.5L130 1290.5V1320.5V1344.5V1382.5V1403V1420.5L125.5 1446.5V1468V1486.5L122.5 1513.5L147 1531.5L199.5 1540.5H248.5L284 1531.5H306H359.5V1525M297.5 41V33.5L312 23.5L307 33.5L297.5 54.2961V73.5L302 98.5L315 112L327.5 122.5L334 139.5L338.5 157.5L341.5 174L359.5 189L368.5 205L376.5 224L381 259L390.5 295.5L394 309.5M394 309.5L398 278.5L409 224L412.5 190.5L421.5 171L427 161.5V157.5V145L421.5 139.5L427 122.5L431.5 112L445 109.5L461 103.5L470.5 98.5L480.5 80.5L498.5 45L500.5 27V16L494 7.5L489 2L500.5 7.5L516 23.5L528.5 41L533.5 54.2961L528.5 73.5L524 85L520.5 102L514.5 112.25M367 1533L402.5 1525V1500.5L411 1397.5L417 1290.5L421.5 1132.5V1054V898L415.5 744V655L421.5 570V531.5V499.5V470.5V396V380.5L427 347.5L431.5 322L436.5 292L440.5 268.5L445 245V228L453.5 205V184.5L461 167V152.5H431.5H445L461 145L480.5 139.5L494 131.5L508.5 122.5L514.5 112.25M367 1533H402.5H478.5L541.5 1531.5L613.5 1525L658 1518L678.5 1505V1478L682.5 1451V1435.5L689.5 1413.5V1370L701 1310L689.5 1266.5V1183V1136.5L682.5 1076V1009L678.5 979.5V910.5L668 832.5L656.5 709.5L650 634.5V582.5L638.5 550.5V518.5V479.5V447V432L650 470.5V513L656.5 550.5V593.5L668 619.5V647L678.5 673.5V709.5L682.5 772V799.5V835.5V898L689.5 958L668 1009V1101.5L697.5 1108.5L715 1101.5L735.5 1108.5H753.5L761 1117.5L775 1119.5L790 1126.5L804 1101.5L810.5 1031V898V826.5L804 730.5V673.5V589.5L795.5 531.5V479.5L785 419.5L771 347.5V322V278.5L761 235L750.5 205L739.5 167L720 139.5L682.5 122.5L650 103.5L608 85L581.5 67.5L561 54.2961L540.5 45L514.5 112.25M367 1533L359.5 1525" stroke="black" stroke-width="3"/>
</svg>
